<?xml version="1.0" encoding="utf-8"?>
<!-- Generator: Adobe Illustrator 18.0.0, SVG Export Plug-In . SVG Version: 6.00 Build 0)  -->
<!DOCTYPE svg PUBLIC "-//W3C//DTD SVG 1.1//EN" "http://www.w3.org/Graphics/SVG/1.1/DTD/svg11.dtd">
<svg version="1.1" id="Facebook" xmlns="http://www.w3.org/2000/svg" xmlns:xlink="http://www.w3.org/1999/xlink" x="0px" y="0px"
	 viewBox="0 0 600 800" enable-background="new 0 0 600 800" xml:space="preserve">
<g>
	<circle id="facebook-back" fill="#FEBC11" cx="300" cy="400" r="300"/>
	<path id="facebook-facebook" fill="#FFFFFF" d="M446,235.9H154c-10,0-18.1,8.1-18.1,18.1V546c0,10,8.1,18.1,18.1,18.1h157.1V437
		h-42.8v-49.5h42.8V351c0-42.4,25.9-65.5,63.7-65.5c18.1,0,33.7,1.3,38.2,2v44.3l-26.2,0c-20.6,0-24.5,9.8-24.5,24.1v31.6h49
		L405,437h-42.7v127.1H446c10,0,18.1-8.1,18.1-18.1V254C464.1,244,456,235.9,446,235.9z"/>
</g>
</svg>
