<?xml version="1.0" encoding="utf-8"?>
<!-- Generator: Adobe Illustrator 18.0.0, SVG Export Plug-In . SVG Version: 6.00 Build 0)  -->
<!DOCTYPE svg PUBLIC "-//W3C//DTD SVG 1.1//EN" "http://www.w3.org/Graphics/SVG/1.1/DTD/svg11.dtd">
<svg version="1.1" id="Instagram" xmlns="http://www.w3.org/2000/svg" xmlns:xlink="http://www.w3.org/1999/xlink" x="0px" y="0px"
	 viewBox="0 0 600 800" enable-background="new 0 0 600 800" xml:space="preserve">
<g>
	<circle id="instagram-back" fill="#FEBC11" cx="300" cy="400" r="300"/>
	<path id="instagram-instagram" fill="#FFFFFF" d="M429.2,374.1H400c2.1,8.3,3.4,16.9,3.4,25.9c0,57.1-46.3,103.4-103.4,103.4
		c-57.1,0-103.4-46.3-103.4-103.4c0-8.9,1.3-17.6,3.4-25.9h-29.3v142.2c0,7.1,5.8,12.9,12.9,12.9h232.6c7.2,0,12.9-5.8,12.9-12.9
		L429.2,374.1L429.2,374.1z M429.2,283.7c0-7.1-5.8-12.9-12.9-12.9h-38.8c-7.1,0-12.9,5.8-12.9,12.9v38.8c0,7.1,5.8,12.9,12.9,12.9
		h38.8c7.2,0,12.9-5.8,12.9-12.9L429.2,283.7L429.2,283.7z M300,335.4c-35.7,0-64.6,28.9-64.6,64.6c0,35.7,28.9,64.6,64.6,64.6
		c35.7,0,64.6-28.9,64.6-64.6C364.6,364.3,335.7,335.4,300,335.4 M429.2,568H170.8c-21.4,0-38.8-17.4-38.8-38.8V270.8
		c0-21.4,17.4-38.8,38.8-38.8h258.5c21.4,0,38.8,17.4,38.8,38.8v258.5C468,550.6,450.7,568,429.2,568"/>
</g>
</svg>
