<?xml version="1.0" encoding="utf-8"?>
<!-- Generator: Adobe Illustrator 18.0.0, SVG Export Plug-In . SVG Version: 6.00 Build 0)  -->
<!DOCTYPE svg PUBLIC "-//W3C//DTD SVG 1.1//EN" "http://www.w3.org/Graphics/SVG/1.1/DTD/svg11.dtd">
<svg version="1.1" id="Pinterest" xmlns="http://www.w3.org/2000/svg" xmlns:xlink="http://www.w3.org/1999/xlink" x="0px" y="0px"
	 viewBox="0 0 600 800" enable-background="new 0 0 600 800" xml:space="preserve">
<g>
	<circle id="pinterest-back" fill="#FEBC11" cx="300" cy="400" r="300"/>
	<path id="pinterest-pinterest" fill="#FFFFFF" d="M430.1,342.6c0,75.7-42.1,132.3-104.1,132.3c-20.8,0-40.4-11.3-47.2-24.1
		c0,0-11.2,44.5-13.6,53.1c-8.3,30.3-32.9,60.7-34.8,63.2c-1.3,1.7-4.3,1.2-4.6-1.1c-0.5-3.9-6.8-42.1,0.6-73.4
		c3.7-15.7,24.8-105.2,24.8-105.2S245,375,245,356.8c0-28.6,16.6-50,37.2-50c17.6,0,26,13.2,26,29c0,17.7-11.2,44.1-17,68.5
		c-4.9,20.5,10.3,37.2,30.5,37.2c36.6,0,61.2-47,61.2-102.6c0-42.3-28.5-74-80.3-74c-58.5,0-95,43.7-95,92.4
		c0,16.8,5,28.7,12.7,37.8c3.6,4.2,4.1,5.9,2.8,10.8c-1,3.6-3,12.1-4,15.5c-1.3,4.9-5.2,6.6-9.7,4.8c-27-11-39.5-40.5-39.5-73.7
		c0-54.8,46.2-120.6,137.9-120.6C381.6,232,430.1,285.3,430.1,342.6z"/>
</g>
</svg>
