<?xml version="1.0" encoding="utf-8"?>
<!-- Generator: Adobe Illustrator 18.0.0, SVG Export Plug-In . SVG Version: 6.00 Build 0)  -->
<!DOCTYPE svg PUBLIC "-//W3C//DTD SVG 1.1//EN" "http://www.w3.org/Graphics/SVG/1.1/DTD/svg11.dtd">
<svg version="1.1" id="Layer_1" xmlns="http://www.w3.org/2000/svg" xmlns:xlink="http://www.w3.org/1999/xlink" x="0px" y="0px"
	 viewBox="0 0 345 331.3" enable-background="new 0 0 345 331.3" xml:space="preserve">
<g>
	<path fill="#FFFFFF" d="M0,20.7c0-2,0-4,0-6.1c1.6-3,2.6-6.6,4.9-9C10.3,0.1,17-1.2,24.4,1.1c17.1,5.4,34.3,10.8,51.4,16.3
		c5.4,1.7,9.4,5.4,10.7,10.9c1.4,5.9,1.9,12.1,2.7,18.2c0.7,5,1.2,10,1.7,14.9c0.7,0.2,1.2,0.3,1.6,0.3c17.1,1.9,34.3,3.9,51.4,5.8
		c22.4,2.5,44.9,4.9,67.3,7.4c21.8,2.4,43.6,5,65.4,7.4c17.1,1.9,34.3,3.7,51.4,5.8c3.1,0.4,6.3,1.8,9.1,3.4
		c4.3,2.4,6.1,6.9,7.8,11.3c0,2.4,0,4.8,0,7.2c-0.4,1.2-0.8,2.4-1,3.6c-1.8,10.1-3.4,20.3-5.2,30.4c-2.9,16.4-5.8,32.7-8.7,49.1
		c-0.7,3.8-2.5,6.8-5.4,9.3c-3.9,3.4-8.5,4.5-13.5,4.5c-34.3,0-68.5,0-102.8,0c-34.2,0-68.3,0-102.5,0c-4,0-4,0-4.7,3.8
		c-0.4,2.4-0.9,4.9-1.3,7.3c-0.7,4-1.4,8.1-2.2,12.6c1.8,0,3.1,0,4.5,0c64.5,0,129,0,193.4,0c1.7,0,3.5,0,5.2,0.2
		c6.8,0.9,11.7,4.5,14.2,10.7c2.6,6.5,1.9,12.8-2.8,18.3c-4.1,4.9-9.5,6.4-15.7,6.4c-72.7-0.1-145.3,0-218,0c-1,0-2-0.1-3-0.1
		c-9.8,0-18.8-9.7-17-21.1c1.8-11.2,4.2-22.4,6.1-33.6c1.5-8.8,3.7-17.4,2.7-26.7c-2.7-22.9-4.7-45.8-6.9-68.8
		c-2.2-21.7-4.4-43.5-6.4-65.2c-0.2-2.3-1.1-3.3-3.2-3.9c-12.4-3.8-24.7-7.5-37-11.7c-3.2-1.1-6.5-2.9-8.8-5.3
		C2.7,27.5,1.6,23.8,0,20.7z"/>
	<path fill="#FFFFFF" d="M130.7,303.9c-0.4,15.5-12.6,27.7-27.5,27.4c-15.3-0.4-27.6-13.1-27.1-28.2c0.5-15.5,12.7-27,28.1-26.8
		C119.1,276.5,131.2,289.3,130.7,303.9z"/>
	<path fill="#FFFFFF" d="M293.3,303.9c-0.2,15.4-12.6,27.7-27.5,27.4c-15.3-0.3-27.5-12.8-27.1-28.1c0.4-15.4,12.4-26.9,27.7-26.8
		C281.5,276.4,293.6,289.1,293.3,303.9z"/>
</g>
</svg>
