<svg xmlns="http://www.w3.org/2000/svg" viewBox="0 0 118.7 39.8"><path fill="#0F0708" d="M16.6 6.7l.9 3.1L5 4h8.7L13 1.1h33.2l-2.5 5.6h-7l-9.1 20.5h-7.7L29 6.7H16.6z"/><path fill="#FFF" d="M46.1 1.1l-2.5 5.6h-7l-9.1 20.5h-7.7L29 6.7H16.6l.9 3.1L5 4h8.7L13 1.1h33.1M47.9 0H11.5l.4 1.4.4 1.5H0L4.6 5 17 10.8l2.2 1-.7-2.3-.5-1.7h9.2l-8.4 19-.7 1.6h10.1l.3-.7 8.8-19.9h7l.3-.7 2.5-5.6.8-1.5z"/><g><path fill="#0F0708" d="M38.3 27.2l.4-.8c-.9.6-2.4 1-3.8 1-3.4 0-4.7-.9-3.9-2.7L36.6 12h6L37 24.7c-.2.4.3.7 1 .7s1.4-.3 1.5-.7L45.1 12h6l-6.8 15.3h-6z"/><path fill="#FFF" d="M51.1 12l-6.8 15.3h-6l.4-.8c-.9.6-2.4 1-3.8 1-3.4 0-4.7-.9-3.9-2.7L36.6 12h6L37 24.7c-.2.4.3.7 1 .7s1.4-.3 1.5-.7L45.1 12h6m1.9-1.2H36l-.3.7-5.6 12.7c-.6 1.3-.3 2.2.1 2.8.7 1.1 2.3 1.7 5 1.7.6 0 1.2-.1 1.8-.2h8.4l.3-.7 6.8-15.3.5-1.7z"/><path fill="#0F0708" d="M53.9 27.4c-7.2 0-6.4-2-5.8-3.4l3.9-8.8c.6-1.5 1.7-3.4 8.8-3.4 7.1 0 6.4 2 5.7 3.4L65 18.5h-6l1.8-4.1c.2-.4-.2-.6-.9-.6s-1.4.3-1.6.6l-4.6 10.3c-.2.4.3.6 1 .6s1.3-.3 1.5-.6l2.2-4.9h6L62.7 24c-.7 1.4-1.7 3.4-8.8 3.4z"/><path fill="#FFF" d="M60.8 11.8c7.1 0 6.4 2 5.7 3.4L65 18.5h-6l1.8-4.1c.2-.4-.2-.6-.9-.6s-1.4.3-1.6.6l-4.6 10.3c-.2.4.3.6 1 .6s1.3-.3 1.5-.6l2.2-4.9h6L62.7 24c-.6 1.5-1.7 3.4-8.8 3.4-7.2 0-6.4-2-5.8-3.4l3.9-8.8c.7-1.5 1.7-3.4 8.8-3.4m0-1.2c-7.5 0-9 2.1-9.9 4.1L47 23.5c-.3.7-.9 2-.1 3.2.9 1.3 3 1.9 7 1.9 7.4 0 9-2.1 9.9-4.1l1.8-4.1.7-1.7 1.3-3c.3-.7.9-2 .1-3.2-.8-1.4-2.9-1.9-6.9-1.9z"/><path fill="#0F0708" d="M72.1 27.2l3.3-7.4h-2.5l-3.3 7.4h-6l7.7-17.3h6L74 17.4l5.5-5.4h5.4L79 17.8h3.3l-4.1 9.5h-6.1z"/><path fill="#FFF" d="M77.3 9.9L74 17.4l5.5-5.4h5.4L79 17.8h3.3l-4.1 9.5h-6l3.3-7.4H73l-3.3 7.4h-6L71.4 10h5.9m1.8-1.3h-8.6l-.3.7-7.7 17.3-.7 1.7H78.9l.3-.7 4.1-9.5.7-1.7h-2.2l3.8-3.8 2.1-2H79l-.3.3-1 1 .8-1.7.6-1.6z"/><g><path fill="#0F0708" d="M87.4 27.4c-7.2 0-6.4-2-5.8-3.4l3.9-8.8c.6-1.5 1.7-3.4 8.8-3.4 7.1 0 6.4 2 5.7 3.4l-2 4.7h-8.5l-2.2 4.9c-.2.4.3.6 1 .6s1.3-.3 1.5-.6l1.6-3.6h6L96.2 24c-.7 1.4-1.7 3.4-8.8 3.4zm7-13c.2-.4-.2-.6-.9-.6s-1.4.3-1.6.6l-1.5 3.3h2.5l1.5-3.3z"/><path fill="#FFF" d="M94.3 11.8c7.1 0 6.4 2 5.7 3.4l-2 4.7h-8.5l-2.2 4.9c-.2.4.3.6 1 .6s1.3-.3 1.5-.6l1.6-3.6h6L96.2 24c-.6 1.5-1.7 3.4-8.8 3.4-7.2 0-6.4-2-5.8-3.4l3.9-8.8c.7-1.5 1.7-3.4 8.8-3.4m-3.9 6h2.5l1.5-3.3c.2-.4-.2-.6-.9-.6s-1.4.3-1.6.6l-1.5 3.3m3.9-7.2c-7.5 0-9 2.1-9.9 4.1l-3.9 8.8c-.3.7-.9 2-.1 3.2.9 1.3 3 1.9 7 1.9 7.4 0 9-2.1 9.9-4.1l1.2-2.8.3-.6.3-.7 2.1-4.7c.3-.7.9-2 .1-3.2-.9-1.4-3-1.9-7-1.9z"/></g><g><path fill="#0F0708" d="M108.8 19.9l2.4-5.4c.2-.4-.2-.7-.9-.7s-1.4.3-1.6.7L103 27.3h-6l6.8-15.3h6l-.4.8c.9-.6 2.4-1 3.8-1 3.4 0 4.7.9 3.9 2.8l-2.4 5.3h-5.9z"/><path fill="#FFF" d="M113.3 11.8c3.4 0 4.7.9 3.9 2.8l-2.4 5.3h-6l2.4-5.4c.2-.4-.2-.7-.9-.7s-1.4.3-1.6.7L103 27.3h-6l6.8-15.3h6l-.4.8c1-.6 2.5-1 3.9-1m0-1.2c-.6 0-1.2.1-1.8.2H103l-.3.7L96 26.7l-.7 1.7h8.6l.3-.7 2.9-6.6h8.5l.3-.7 2.4-5.3c.6-1.3.3-2.2-.1-2.8-.7-1.2-2.3-1.7-4.9-1.7z"/></g></g><g fill="#0F0708"><path d="M111.1 22.3h-.7l-.6 1.3h-.6l.6-1.3h-.7l.1-.3h1.9v.3zM112.4 22l-.1 1.1.9-1.1h.9l-.7 1.6h-.6l.6-1.3-1.1 1.3h-.5v-1.3l-.6 1.3h-.6l.7-1.6h1.1z"/></g><g fill="#0F0708"><path d="M22.5 32.6h-1.8l-2.6 6h-2.4l2.6-6h-1.8l.4-.9H23l-.5.9z"/><path d="M26.3 35.3h-2.2l.5-1.2c.1-.2 0-.3-.3-.3-.1 0-.2 0-.3.1-.1 0-.1.1-.2.2l-2 4.5h-2.2L22 33h2.2l-.1.2c.2-.1.4-.1.6-.2.3 0 .5-.1.8-.1.5 0 .8.1 1 .2.2.2.3.3.2.6l-.4 1.6zM30.7 38.6h-1.9l.1-.2c-.2.1-.4.2-.6.2-.2 0-.5.1-.9.1-.6 0-1.1-.1-1.3-.2-.2-.1-.2-.4-.1-.7l.5-1.1c.2-.4.8-.8 1.9-1.1 1.1-.3 1.7-.5 1.7-.6l.4-.8V34s-.1-.1-.2-.1-.2 0-.3.1c-.1 0-.2.1-.2.2l-.5 1.1h-2.1l.5-1.1c.2-.4.6-.7 1.2-.9.5-.2 1.1-.2 1.9-.2.8 0 1.3.1 1.6.2.4.2.5.5.3.9l-2 4.4zM29 37.5l.6-1.4c-.3 0-.5.1-.7.2l-.3.3-.4 1v.2s.1.1.3.1c.1 0 .2 0 .3-.1.1-.1.2-.2.2-.3zM36.6 38.6h-2.2l2-4.5c.1-.2 0-.3-.3-.3-.1 0-.2 0-.3.1-.1 0-.1.1-.2.2l-2 4.5h-2.2L34 33h2.2l-.2.2c.2-.1.4-.1.6-.2.3 0 .5-.1.8-.1.5 0 .8.1 1 .2.2.2.3.3.2.6l-2 4.9zM42.9 37.5c-.2.4-.6.7-1.2.9-.5.2-1.1.3-1.9.3-.7 0-1.3-.1-1.6-.2-.4-.2-.5-.5-.4-.9l.5-1.2h2.2l-.5 1.1v.2s.1.1.2.1.2 0 .3-.1c.1 0 .1-.1.2-.2l.2-.4c.2-.4.1-.6-.1-.7-.3-.1-.6-.3-.9-.4-.4-.2-.7-.3-.8-.5-.1-.1-.1-.3 0-.6l.3-.7c.2-.4.6-.7 1.1-.9.5-.2 1.1-.3 1.9-.3.7 0 1.3.1 1.6.2.4.2.5.5.3.9l-.5 1.1h-2.1l.5-1.1v-.2s-.1-.1-.2-.1-.2 0-.3.1c-.1 0-.2.1-.2.2l-.2.5c-.1.2 0 .4.2.5l.7.3c.5.2.8.4.9.4.2.2.3.4.1.8l-.3.9zM49.3 33.8H48l-2 4.8h-2.2l2.1-4.8h-.7l.4-.8h.7c.3-.6.5-.9.7-1.1.3-.2.9-.2 1.9-.2h1.4l-.3.8h-.7c-.4 0-.6.1-.6.3l-.3.2h1.2l-.3.8zM53.4 37.5c-.2.4-.6.7-1.1.9-.5.2-1.1.2-1.9.2-.8 0-1.3-.1-1.7-.2-.4-.2-.5-.5-.4-.9l1.5-3.3c.2-.4.6-.7 1.2-.9.5-.2 1.1-.3 1.9-.3.7 0 1.3.1 1.7.3.4.2.5.5.4.8l-1.6 3.4zm-2.2 0l1.5-3.4v-.2s-.1-.1-.3-.1c-.1 0-.2 0-.3.1-.1 0-.2.1-.2.2l-1.5 3.4v.2s.1.1.2.1.2 0 .3-.1c.2 0 .3-.1.3-.2zM60.2 35.3H58l.5-1.2c.1-.2 0-.3-.3-.3-.1 0-.2 0-.3.1-.1 0-.1.1-.2.2l-2 4.5h-2.2l2.4-5.6h2.2l-.1.2c.2-.1.4-.1.6-.2.3 0 .5-.1.8-.1.5 0 .8.1 1 .2.2.2.3.3.2.6l-.4 1.6zM67.5 38.6h-2.2l2-4.5c.1-.2 0-.3-.3-.3-.1 0-.2 0-.3.1-.1 0-.1.1-.2.2l-2 4.5h-2.2l2-4.5c.1-.2 0-.3-.3-.3-.1 0-.2 0-.3.1-.1 0-.1.1-.2.2l-2 4.5h-2.2l2.4-5.6h2.2l.1.2c.2-.1.4-.1.6-.2.3 0 .5-.1.8-.1.4 0 .7 0 .8.1.1.1.3.2.4.3.1-.1.4-.2.7-.2.4-.1.7-.1 1-.1.4 0 .8.1 1 .2.2.2.3.4.2.6l-2 4.8zM70.4 38.6h-2.2l2.4-5.6h2.2l-2.4 5.6zm2.6-5.9h-2.2l.4-1h2.2l-.4 1zM76.4 38.6h-2.2l2-4.5c.1-.2 0-.3-.3-.3-.1 0-.2 0-.3.1-.1 0-.1.1-.2.2l-2 4.5h-2.2l2.4-5.6h2.2l-.1.2c.2-.1.4-.1.6-.2.3 0 .5-.1.8-.1.5 0 .8.1 1 .2.2.2.3.3.2.6l-1.9 4.9zM82.3 38.5c-.2.4-.3.7-.5.8-.2.1-.5.3-.8.3-.2.1-.4.1-.7.1h-3.2l.4-.8h1.8c.4 0 .6-.1.8-.2.1-.1.1-.2.2-.3-.2.1-.4.1-.6.2-.2 0-.5.1-.8.1-.5 0-.8-.1-1-.2-.2-.2-.3-.3-.2-.6l1.8-4c.1-.3.3-.5.6-.6.4-.2.9-.3 1.5-.3.3 0 .6 0 .8.1.1.1.2.1.3.1l.4-.2H85l-2.7 5.5zm-1.8-.9l1.5-3.5v-.2s-.1-.1-.3-.1c-.2 0-.4.1-.5.3l-1.5 3.5c-.1.2 0 .3.3.3.1 0 .2 0 .3-.1.1-.1.2-.1.2-.2zM93.8 34.8c-.2.4-.5.7-.8.9-.4.2-.7.3-.9.3-.2 0-.9.1-1.9 0L89 38.6h-2.3l3-6.9H92c1 0 1.7 0 2 .1.6.2.8.5.6 1.1l-.8 1.9zm-2.3-.1l.7-1.7c.1-.2 0-.3-.1-.3h-.5l-1 2.4h.5c.2-.1.4-.2.4-.4zM95.2 38.6H93l3-6.9h2.2l-3 6.9zM101.1 38.6h-1.9l.1-.2c-.2.1-.4.2-.6.2-.2 0-.5.1-.9.1-.6 0-1.1-.1-1.3-.2-.2-.1-.2-.4-.1-.7l.5-1.1c.2-.4.8-.8 1.9-1.1 1.1-.3 1.7-.5 1.7-.6l.4-.8V34s-.1-.1-.2-.1-.2 0-.3.1c-.1 0-.2.1-.2.2l-.5 1.1h-2.1l.5-1.1c.2-.4.6-.7 1.2-.9.5-.2 1.1-.2 1.9-.2.8 0 1.3.1 1.6.2.4.2.5.5.3.9l-2 4.4zm-1.7-1.1l.6-1.4c-.3 0-.5.1-.7.2l-.3.3-.4 1v.2s.1.1.3.1c.1 0 .2 0 .3-.1.1-.1.2-.2.2-.3zM109.8 33l-4.1 5.6c-.3.4-.5.6-.6.7-.2.2-.5.3-.9.4-.1 0-.3.1-.4.1h-2.1l.3-.8h.7c.2 0 .3 0 .4-.1.1-.1.2-.2.2-.3v-.2l.4-5.5h2.2l-.4 3 2-3h2.3z"/></g></svg>