<?xml version="1.0" encoding="utf-8"?>
<!-- Generator: Adobe Illustrator 18.0.0, SVG Export Plug-In . SVG Version: 6.00 Build 0)  -->
<!DOCTYPE svg PUBLIC "-//W3C//DTD SVG 1.1//EN" "http://www.w3.org/Graphics/SVG/1.1/DTD/svg11.dtd">
<svg version="1.1" id="Twitter" xmlns="http://www.w3.org/2000/svg" xmlns:xlink="http://www.w3.org/1999/xlink" x="0px" y="0px"
	 viewBox="0 0 600 800" enable-background="new 0 0 600 800" xml:space="preserve">
<g>
	<circle id="twitter-back" fill="#FEBC11" cx="300" cy="400" r="300"/>
	<path id="twitter-twitter" fill="#FFFFFF" d="M468,295.8c-12.4,5.5-25.6,9.2-39.6,10.9c14.2-8.5,25.2-22,30.3-38.1
		c-13.3,7.9-28.1,13.6-43.8,16.7c-12.6-13.4-30.5-21.8-50.3-21.8c-38.1,0-68.9,30.9-68.9,68.9c0,5.4,0.6,10.7,1.8,15.7
		c-57.3-2.9-108.1-30.3-142.1-72c-5.9,10.2-9.3,22-9.3,34.7c0,23.9,12.2,45,30.7,57.4c-11.3-0.4-21.9-3.5-31.2-8.6
		c0,0.3,0,0.6,0,0.9c0,33.4,23.8,61.3,55.3,67.6c-5.8,1.6-11.9,2.4-18.2,2.4c-4.4,0-8.8-0.4-13-1.2c8.8,27.4,34.2,47.3,64.4,47.9
		c-23.6,18.5-53.3,29.5-85.6,29.5c-5.6,0-11-0.3-16.4-1c30.5,19.6,66.7,31,105.7,31c126.8,0,196.1-105,196.1-196.1
		c0-3-0.1-6-0.2-8.9C447.1,321.8,458.8,309.6,468,295.8z"/>
</g>
</svg>
